<svg xmlns="http://www.w3.org/2000/svg" viewBox="0 0 893.75 102.65"><defs><style>.cls-1{fill:#124e84;}</style></defs><title>Part of the story</title><g id="Layer_2" data-name="Layer 2"><g id="Layer_1-2" data-name="Layer 1"><path class="cls-1" d="M3.63,78.65c-.84,0-4-.6-3.6-4.8L9.15,8.93a3.33,3.33,0,0,1,.72-1.56C16.11,1.25,17,.66,17.79.66H20S48-5.59,45.87,20.45c-1.08,5.16-2.88,9.24-5.76,12.24-.48.6-.48,1.32.24,1.56,0,0,13.08,1.92,11,20.4-2.64,24.84-39.12,24-39.12,24Zm11.88-15.6s20.28,1.2,21.24-11.16C36.63,37,18.27,41.45,18.27,41.45a1.53,1.53,0,0,0-1.2,1.2l-2.64,19.2c-.12,1,1.8,1.2,1.8,1.2Zm5.4-48-1.68,12a1.07,1.07,0,0,0,1.2,1.2c1,0,12.24.36,13.08-7.2.84-7.92-11.4-7.2-11.4-7.2A1.39,1.39,0,0,0,20.91,15.05Z"/><path class="cls-1" d="M98.79,65.33,100.47,70c.72,1.2-.24,2.52-1.32,3.12-12.72,8.52-24.48,5-24.48,5C57.15,73.37,57.51,53.69,59,47c6.36-23.4,21.24-25.32,29.16-24.72,16.68.6,21,22.68,2,32.4a32.79,32.79,0,0,1-15.6,3.24s.12,15.48,18.24,4.56C94.83,61.49,97.35,62.33,98.79,65.33ZM89.31,35.21c-3.72-8-15.72,4-16,10.44C78.75,46.37,92.67,42.05,89.31,35.21Z"/><path class="cls-1" d="M178.11,48.65c-2.53,25.32-32.4,23.16-32.4,23.16a3.07,3.07,0,0,0-2.88,2.4l-3.48,24.48c-.24,1.44-1.2,4-3.84,4h-6.6c-4,0-3.6-3.6-3.6-5.52l8.88-63.72a2.74,2.74,0,0,1,.72-1.44l5.64-6.24a3.48,3.48,0,0,1,2.16-1h6.12S181,19.13,178.11,48.65Zm-12-6.84c-2.28-9.6-18.36-4.68-18.36-4.68l-3.12,21.24C161.31,60.65,168.15,50.09,166.11,41.81Z"/><path class="cls-1" d="M197,52.73c6.11-38.64,34.55-26.28,34.55-26.28l7.44-2.16c1.92-.36,5.16,5.28,5.16,6.72l-4.56,31.44c.36,1.68,4.92,4.56,3.72,7-3.48,8.88-4,9.12-4.56,9.12-2.52.12-12-.48-12-4.56C226.7,74,190.59,93.17,197,52.73Zm33.83-11.4s.6-7.2-8.4-4.56c-7.8,2.28-10.56,13-10.56,13-7.31,28.92,16.44,8.4,16.44,8.4Z"/><path class="cls-1" d="M290.66,28.25c.24,2.76-7,12.24-9.36,9.6-6.6-7.2-12.6-.72-13.08,1.2s1.08-3.48-4.8,36c-.24,1.32-1,3.6-3.72,3.6h-7.2c-4.19,0-3.48-3.24-3.35-4.8L255.26,29l5.16-6.72h6.72c2,0,2.76,1.92,2.88,3.72C275.06,22.61,289.34,20.09,290.66,28.25Z"/><path class="cls-1" d="M342.14,63.05c-3.12,11.64-18.72,22.8-34.56,15.6-1.44-.72-8.64-3.48-7-19.2.24-1.56.36-4.92,1.68-14h-5.88c-2,0-3.6-3.24-2.88-5.16l1.2-4.92a3,3,0,0,1,2.88-2h6.24c1.56-10.32,2.28-16,3-20.64.24-1.44,5.88-6,5.88-6h5.88s3.48.12,2.64,6.12l-3,20.52h11a3,3,0,0,1,2.88,4.08l-1.68,6a3,3,0,0,1-2.76,2H316.58l-2,14.76c-.6,7.08,8.28,11.76,18-2.52C335.54,53.21,341.78,59.81,342.14,63.05Z"/><path class="cls-1" d="M414.5,37.37c.12,16.08-3.72,41.28-22.2,41.28-11.28,0-20.88-6.12-20.88-18,0-19.56,2.4-40.8,28.08-38.4C409.46,23.21,414.38,27.41,414.5,37.37ZM396.62,64c3-2.64,5.88-19.56,5.88-23.88s-4.32-5.88-8.4-5.88c-9.72,0-11,17.4-11,24.24C383.06,65.81,391.22,69.05,396.62,64Z"/><path class="cls-1" d="M461.06,6.65a2.52,2.52,0,0,1,2,3.48l-2.16,5.64a3.26,3.26,0,0,1-3.12,1.68H444a2.57,2.57,0,0,0-2.76,2.4l-1.44,7.8c0,3,2,3,2,3h10.2a1.77,1.77,0,0,1,1.32,2.4l-3.24,8.4a3.9,3.9,0,0,1-2.16,1.2H440.3a2.82,2.82,0,0,0-2.64,2.4l-4,28.8c-.36,4-2.4,4.8-4,4.8h-7.2c-4.32-.12-3.24-4.8-3.24-4.8l8.16-58.08,8.4-9.12Z"/><path class="cls-1" d="M524.18,63.05c-3.12,11.64-18.72,22.8-34.56,15.6-1.44-.72-8.64-3.48-7-19.2.24-1.56.36-4.92,1.68-14h-5.88c-2,0-3.6-3.24-2.88-5.16l1.2-4.92a3,3,0,0,1,2.88-2h6.24c1.56-10.32,2.28-16,3-20.64.24-1.44,5.88-6,5.88-6h5.88s3.48.12,2.64,6.12l-3,20.52h11a3,3,0,0,1,2.88,4.08l-1.68,6a3,3,0,0,1-2.76,2H498.62l-2,14.76c-.6,7.08,8.28,11.76,18-2.52C517.58,53.21,523.82,59.81,524.18,63.05Z"/><path class="cls-1" d="M542.9,48.29l-3.6,25.32c-.72,5-3.6,5-3.6,5h-7.56s-4,.24-3.24-4.8l8-58c.72-2.16,6.36-9.24,8.4-9.24h3.6a3,3,0,0,1,3.24,3.6l-3.6,25.92s5.16-5.4,15.48-6.12c8.88-.6,19,6.36,9,44.4-1.56,5-4.08,4.08-4.08,4.2H556.7c-4.32.12-2.28-4.8-2.4-4.8.36-.6,10.32-34.92-1.2-32.4C544.34,43.37,542.9,48.29,542.9,48.29Z"/><path class="cls-1" d="M627.74,65.33,629.42,70c.72,1.2-.24,2.52-1.32,3.12-12.72,8.52-24.48,5-24.48,5C586.1,73.37,586.46,53.69,587.9,47c6.36-23.4,21.24-25.32,29.16-24.72,16.68.6,21,22.68,2,32.4a32.79,32.79,0,0,1-15.6,3.24s.12,15.48,18.24,4.56C623.78,61.49,626.3,62.33,627.74,65.33Zm-9.48-30.12c-3.72-8-15.72,4-16,10.44C607.7,46.37,621.62,42.05,618.26,35.21Z"/><path class="cls-1" d="M680.9,38.09a2.47,2.47,0,0,1-2.4-2.16c-.24-3.84-1.8-5.52-5.28-4.8-4.68.72-4.32,8.28,4.08,13.44,19.8,9.24,15.12,34-5.76,35.52-18.6,1.44-21.72-9.84-21.36-17.76.12-1.44,1.08-3.12,2.64-3.12h7.32a3,3,0,0,1,2.64,3.12c0,11.52,11.88,7.2,12.6,1,.84-7.8-17-12-19.8-22.2-2.28-8.88,1.68-20,18.84-19.92,14.16.12,16.2,10.32,16,14.28,0,1.2-1.8,2.76-3.12,2.64Z"/><path class="cls-1" d="M741.86,63.05c-3.13,11.64-18.72,22.8-34.56,15.6-1.44-.72-8.64-3.48-7-19.2.24-1.56.36-4.92,1.68-14h-5.88c-2,0-3.6-3.24-2.88-5.16l1.2-4.92a3,3,0,0,1,2.88-2h6.24c1.56-10.32,2.28-16,3-20.64.24-1.44,5.88-6,5.88-6h5.88s3.48.12,2.64,6.12l-3,20.52h11a3,3,0,0,1,2.88,4.08l-1.68,6a3,3,0,0,1-2.76,2H716.3l-2,14.76c-.6,7.08,8.28,11.76,18-2.52C735.26,53.21,741.5,59.81,741.86,63.05Z"/><path class="cls-1" d="M790.21,37.37c.12,16.08-3.72,41.28-22.2,41.28-11.28,0-20.87-6.12-20.87-18,0-19.56,2.39-40.8,28.07-38.4C785.17,23.21,790.09,27.41,790.21,37.37ZM772.33,64c3-2.64,5.88-19.56,5.88-23.88s-4.32-5.88-8.4-5.88c-9.72,0-11,17.4-11,24.24C758.77,65.81,766.93,69.05,772.33,64Z"/><path class="cls-1" d="M836.41,28.25c.24,2.76-7,12.24-9.36,9.6-6.6-7.2-12.6-.72-13.08,1.2s1.08-3.48-4.8,36c-.24,1.32-1,3.6-3.72,3.6h-7.2c-4.2,0-3.48-3.24-3.36-4.8L801,29l5.16-6.72h6.72c2,0,2.76,1.92,2.88,3.72C820.81,22.61,835.09,20.09,836.41,28.25Z"/><path class="cls-1" d="M859.33,64.13,845.05,28.85c-.6-2,.48-4.44,2.52-4.2h6.6a5.58,5.58,0,0,1,5.52,4l8.4,22.2,10.68-22.2c.24-.72,1.44-4,4.8-4h7.56c2,0,3.36,1.2,2.16,4.68L874,65.45l-4.8,32.88c-1.56,4.32-4.44,4.32-5.4,4.32h-4.68c-.12,0-3.6-1.2-3.6-6Z"/></g></g></svg>