<svg xmlns="http://www.w3.org/2000/svg" viewBox="0 0 1366 374.6"><defs><style>.cls-1{fill:#f8b848;}.cls-2{fill:#fccc69;}.cls-3{fill:#f7d18a;}.cls-4{fill:#deb163;opacity:0.59;}.cls-5{font-size:75.19px;}.cls-16,.cls-5{fill:#222a4a;font-family:Truko;}.cls-6{letter-spacing:-0.03em;}.cls-7{letter-spacing:-0.01em;}.cls-8{letter-spacing:0.02em;}.cls-9{letter-spacing:-0.07em;}.cls-10{letter-spacing:-0.08em;}.cls-11{letter-spacing:-0.02em;}.cls-12{letter-spacing:0.04em;}.cls-13{letter-spacing:0.03em;}.cls-14{letter-spacing:-0.07em;}.cls-15{letter-spacing:-0.11em;}.cls-16{font-size:150.38px;}.cls-17{letter-spacing:0.07em;}.cls-18{letter-spacing:0.01em;}</style></defs><title>Ribbon</title><g id="Layer_2" data-name="Layer 2"><g id="Layer_1-2" data-name="Layer 1"><polygon class="cls-1" points="592.63 318.36 619.14 307.74 625.8 335.69 687.68 217.22 654.51 199.89 592.63 318.36"/><rect class="cls-2" y="178.54" width="1366" height="41.29"/><polygon class="cls-3" points="772.64 319.88 744.98 307.03 739.46 337.21 652.6 173.9 694.17 168.5 772.64 319.88"/><polygon class="cls-4" points="654.6 177.77 670.15 219.76 676.86 219.83 654.6 177.77"/><text class="cls-5" transform="translate(173.02 315.6)"><tspan class="cls-6">c</tspan><tspan class="cls-7" x="27.52" y="0">o</tspan><tspan class="cls-8" x="56.62" y="0">m</tspan><tspan class="cls-9" x="103.39" y="0">i</tspan><tspan class="cls-10" x="111.96" y="0">n</tspan><tspan x="140.91" y="0">g </tspan><tspan class="cls-11" x="193.32" y="0">S</tspan><tspan class="cls-12" x="226.4" y="0">O</tspan><tspan class="cls-13" x="267.38" y="0">O</tspan><tspan x="307.61" y="0">N</tspan></text><text class="cls-5" transform="translate(825.96 315.6)"><tspan class="cls-6">d</tspan><tspan class="cls-7" x="32.86" y="0">o</tspan><tspan x="61.96" y="0">d yn </tspan><tspan class="cls-14" x="190.08" y="0">F</tspan><tspan class="cls-15" x="219.33" y="0">U</tspan><tspan x="249.26" y="0">AN</tspan></text><text class="cls-16" transform="translate(449.43 120.31)">16.<tspan class="cls-17" x="132.04" y="0">1</tspan><tspan x="174.29" y="0">1.20</tspan><tspan class="cls-18" x="370.09" y="0">1</tspan><tspan x="403.33" y="0">9</tspan></text></g></g></svg>