<svg xmlns="http://www.w3.org/2000/svg" viewBox="0 0 1366 307.59"><defs><style>.cls-1{fill:#f8b848;}.cls-2{fill:#fccc69;}.cls-3{fill:#f7d18a;}.cls-4{fill:#deb163;opacity:0.59;}.cls-5{fill:#222a4a;}</style></defs><title>Ribbon</title><g id="Layer_2" data-name="Layer 2"><g id="Layer_1-2" data-name="Layer 1"><polygon class="cls-1" points="592.63 288.73 619.14 278.12 625.8 306.06 687.68 187.59 654.51 170.26 592.63 288.73"/><rect class="cls-2" y="148.91" width="1366" height="41.29"/><polygon class="cls-3" points="772.64 290.26 744.98 277.41 739.46 307.59 652.6 144.28 694.17 138.87 772.64 290.26"/><polygon class="cls-4" points="654.6 148.15 670.15 190.14 676.86 190.21 654.6 148.15"/><path class="cls-5" d="M197.08,252.89c.75.31,1.28.83,1,1.66l-.67,4.44A1.51,1.51,0,0,1,196,260c-13.38-2.41-13.31,6-13.91,7.37-.15,1.43-1.35,15.41,11.58,9.92,0,0,1.5-.6,2.18.53l2.48,4.66a1,1,0,0,1-.82,1.43c-29.1,9.4-24.89-15.79-24.89-15.79C174.3,246.35,197.08,252.89,197.08,252.89Z"/><path class="cls-5" d="M227.61,260.11c.07,10.08-2.33,25.87-13.91,25.87-7.07,0-13.09-3.83-13.09-11.28,0-12.26,1.51-25.57,17.6-24.06C224.45,251.24,227.53,253.87,227.61,260.11Zm-11.21,16.7c1.88-1.66,3.69-12.26,3.69-15s-2.71-3.68-5.27-3.68c-6.09,0-6.91,10.9-6.91,15.19C207.91,277.93,213,280,216.4,276.81Z"/><path class="cls-5" d="M252.65,259.44s3.31-7.3,9.77-7.3c8,0,7.52,9.1,7.52,9.1l-3.46,23.31a1.39,1.39,0,0,1-1.5,1.36h-5.19a1.47,1.47,0,0,1-1.5-1.66l2.63-18.42c-1.66-5.19-6.32-1.81-6.84,2.86l-2,15.94a1.42,1.42,0,0,1-1.5,1.28H245.8a1.47,1.47,0,0,1-1.5-1.66l1.81-15.19c.75-5.34-4.74-8.12-5.49-3.91l-2.71,19.33a1.64,1.64,0,0,1-1.66,1.5h-4.36c-2.25,0-2.4-2.1-2.25-3l4-27.14s.9-3.69,7.07-3.69c4,0,8.35.3,9.55,7C250.54,260.71,252,260.79,252.65,259.44Z"/><path class="cls-5" d="M280.16,252.29h3.09a1.67,1.67,0,0,1,1.58,2l-4.21,30.16c-.15,1-.61,1.5-3.16,1.5h-3.61a2.39,2.39,0,0,1-2.18-3l3.76-25.49C275.58,256.35,279.11,252.29,280.16,252.29Zm1.88-11.8a4,4,0,0,0-4.06,4,4.08,4.08,0,0,0,4.06,4,4,4,0,1,0,0-8Z"/><path class="cls-5" d="M314.9,264,312,283.05c-.45,3.16-2.55,3-2.55,3h-4c-2.41,0-1.73-3-1.73-3l2.63-17.6c.23-2.1.15-6.24-3.46-6.24-4.06,0-6,2.11-6.76,5.34L293.32,283c-.45,3.16-2.55,3-2.55,3h-3.54c-2.4,0-2.25-3-2.25-3l3-19.17s1.73-13.16,15.8-13.16C317.31,250.64,314.9,264,314.9,264Z"/><path class="cls-5" d="M344.91,281.54c-2.79,14.82-9.63,24.37-24.22,18.88-.9-.3-8-4.89-6.24-12.11.53-.83,5.87-1.28,5.87-1.28,0,1.28.3,5,6.69,6,3,.45,8.8-1.66,9.17-11.36,0,0-5.86,2.11-10.67.61-5.94-1.81-7.37-6.47-7.37-12.56,0-9.1,5-17.52,13.61-17.52,1.95,0,6.09,1.95,6.16,2.1a30.49,30.49,0,0,0,3.09-2.4c1.5,0,6.61-.75,6.39,1.65C346.56,263.42,346.49,273.2,344.91,281.54Zm-7.07-19.77c-.9-1.36-5.42-2.18-6.84-2.18-3.76,0-5.49,4.58-5.49,8.49,0,4.14.9,5.79,3,6.25,5.72,1.27,8.2-1.81,8.43-2.41.37-1.66.9-8.8.9-10.08Z"/><path class="cls-5" d="M390.77,250.26a1.66,1.66,0,0,1-1.58-1.88c0-3.31-.22-5-4-4.88s-6,5.63,1.05,11.42c16.17,9.7,12.33,29.86-4.13,31.06-12.19.9-16.4-8.05-15.65-15,.16-1.21.91-2.71,2-2.64l5.71-.15a2.41,2.41,0,0,1,2,2.71c-.53,9.85,10.3,8.2,10.67.6.38-6.54-13.68-10-15.26-18.57-1.43-7.67,2-17,15.71-17.07,9.1-.15,10.38,8.5,9.93,12a2.87,2.87,0,0,1-2.48,2.33Z"/><path class="cls-5" d="M416.49,286.58c-17.15-.22-17.82-14.51-15.94-28.27s9.1-22.11,22.33-21.28c7,.45,12.86,2.93,13.76,11.35C438.22,261.84,434.84,286.88,416.49,286.58ZM427.84,253c.08-5.34-4.28-7.52-8.19-7.52-8.65,0-10.83,14.81-10.83,21.66,0,4.73,2.78,10,7.67,10C425.29,277.11,427.77,260.56,427.84,253Z"/><path class="cls-5" d="M457.47,286.58c-17.15-.22-17.82-14.51-15.94-28.27s9.09-22.11,22.33-21.28c7,.45,12.86,2.93,13.76,11.35C479.2,261.84,475.81,286.88,457.47,286.58ZM468.82,253c.08-5.34-4.28-7.52-8.19-7.52-8.65,0-10.83,14.81-10.83,21.66,0,4.73,2.78,10,7.67,10C466.27,277.11,468.75,260.56,468.82,253Z"/><path class="cls-5" d="M523.64,237.1l-5.94,44.74c-.23,1.73-1.28,4.14-3.24,4.14h-5c-1.95-.15-2.33-2.71-3.08-4.21l-9.47-20.6a2.09,2.09,0,0,0-4.06.52L490,282.07c-.23,1.81-.9,3.91-2.93,3.91h-4.21c-1.81-.38-2.49-1-2-3l5.79-40.6,4.51-5.27c2.86-.07,4.66-.15,4.89.53l11.5,27.67a1.68,1.68,0,0,0,3.16-.37l3-22.56c.3-1.73,3-5.27,3-5.27Z"/><path class="cls-5" d="M846,255.08a1,1,0,0,0,1.43-.68l1.81-11.28c.07-.53.45-2.26,1-2.26h3.68c1.05.08,4,3.46,4,4,0,.07,0-2.26-5.42,38.12-.3,2.11-1.43,3-2.48,3h-6.17c-19.55-.3-17.89-12.78-16.69-18.65C829,257.41,836.94,252.82,846,255.08Zm-1.35,22.1,1.58-13.76c-8.27-7.52-13,3.76-12.26,8.65C834.3,274,835.21,279.44,844.68,277.18Z"/><path class="cls-5" d="M885.89,260.11C886,270.19,883.56,286,872,286c-7.07,0-13.09-3.83-13.09-11.28,0-12.26,1.51-25.57,17.6-24.06C882.73,251.24,885.81,253.87,885.89,260.11Zm-11.21,16.7c1.88-1.66,3.69-12.26,3.69-15s-2.71-3.68-5.27-3.68c-6.09,0-6.91,10.9-6.91,15.19C866.19,277.93,871.3,280,874.68,276.81Z"/><path class="cls-5" d="M908,255.08a1,1,0,0,0,1.43-.68l1.81-11.28c.07-.53.45-2.26,1-2.26h3.69c1.05.08,4,3.46,4,4,0,.07,0-2.26-5.41,38.12-.3,2.11-1.43,3-2.48,3h-6.17c-19.55-.3-17.89-12.78-16.69-18.65C890.92,257.41,898.89,252.82,908,255.08Zm-1.35,22.1,1.58-13.76c-8.27-7.52-13,3.76-12.26,8.65C896.26,274,897.16,279.44,906.64,277.18Z"/><path class="cls-5" d="M944.69,276.88l-9-22.11c-.38-1.27.3-2.78,1.58-2.63h4.13a3.5,3.5,0,0,1,3.46,2.48l5.26,13.92,6.7-13.92a3.33,3.33,0,0,1,3-2.48h4.74c1.28,0,2.11.75,1.36,2.94l-12.11,22.63-3,20.6c-1,2.71-2.78,2.71-3.38,2.71h-2.94c-.07,0-2.25-.75-2.25-3.76Z"/><path class="cls-5" d="M996,264,993,283.05c-.45,3.16-2.55,3-2.55,3h-4c-2.4,0-1.73-3-1.73-3l2.63-17.6c.23-2.1.15-6.24-3.45-6.24-4.07,0-6,2.11-6.77,5.34L974.39,283c-.46,3.16-2.56,3-2.56,3h-3.54c-2.4,0-2.25-3-2.25-3l3-19.17s1.73-13.16,15.79-13.16C998.37,250.64,996,264,996,264Z"/><path class="cls-5" d="M1018.3,286c-2.49-.15-2-3-2-3l5.64-40.6c.37-1.21,3.23-5.27,4.66-5.27h17.14c.9,0,1.66,1.28,1.51,2.11-1.73,5.79-2.56,7.37-3.54,7.37h-11.5l-1.28,8.57h9.55c1,0,2,.75,1.73,1.81l-1,5a2,2,0,0,1-1.73,1.43h-9.63l-2.78,20.3a2.48,2.48,0,0,1-1.66,2.26Z"/><path class="cls-5" d="M1058.45,286c-15.42,0-12.93-14-12.93-14l4.43-31.13s.08-3.68,2.71-3.68h4.74c1.28-.08,2.1.3,1.58,3.68l-4.29,30.23s-.83,5,3.68,5.94a6,6,0,0,0,6.85-5.19l4.21-31c.3-3.23,1.43-3.76,2.25-3.76h5.57s2,.08,1.5,3.76c-.45,3.31-4.81,31.21-4.81,31.21S1071.53,286,1058.45,286Z"/><path class="cls-5" d="M1104.62,276.21c-.15-1.13-.68-1.51-1.28-1.51H1090a2.24,2.24,0,0,0-2,1.51L1085,283c-1.12,3-2.55,3-2.55,3h-4.89s-3.46.08-1.88-3.53c18.42-42.34,19.7-45.35,20.68-45.35H1104c2.48,0,4.89,4,5.11,5.27l6,40.6a2.59,2.59,0,0,1-2.26,3h-4.66c-1.2,0-2.63-.45-2.86-3Zm-10.6-8.28h7.89a2.64,2.64,0,0,0,2-2.25l-1.51-15.79c0-1.36-2.33-1.88-3,0l-6.77,15.79A1.69,1.69,0,0,0,1094,267.93Z"/><path class="cls-5" d="M1162.07,237.1l-5.94,44.74c-.23,1.73-1.28,4.14-3.24,4.14h-5c-2-.15-2.34-2.71-3.09-4.21l-9.47-20.6a2.09,2.09,0,0,0-4.06.52l-2.86,20.38c-.23,1.81-.9,3.91-2.93,3.91h-4.21c-1.81-.38-2.49-1-2-3l5.79-40.6,4.51-5.27c2.86-.07,4.66-.15,4.89.53L1146,265.3a1.67,1.67,0,0,0,3.15-.37l3-22.56c.3-1.73,3-5.27,3-5.27Z"/><path class="cls-5" d="M467.18.45h10.07a1.78,1.78,0,0,1,1.66,2.26L467,89.48a2,2,0,0,1-1.51,1.21H450.78a1.72,1.72,0,0,1-1.5-2.11l7.52-56.1v.15c1.05-5.26,3.16-6.61-8.87-6l.15-.15a1.91,1.91,0,0,1-2.56-2l1.65-10.07C452,10.83,463.57,3.76,467.18.45Z"/><path class="cls-5" d="M539.66,60.46c0,15-9.17,30.08-26.62,30.08-18.49,0-30.22-10.23-31.58-30.23C480.26,31.73,499.06,8,503.57,1.8A3.88,3.88,0,0,1,506.73.45h9.32a4,4,0,0,1,3.31,6.32c-3.76,5.71-12.18,20.45-15.94,28-1.35,2.86-3.46,5.87,4.81,2.41C527,31.28,539.66,41.81,539.66,60.46Zm-15.19.6a12.6,12.6,0,0,0-12.63-12.63,12.63,12.63,0,1,0,12.63,12.63Z"/><path class="cls-5" d="M561.77,90.69a8.41,8.41,0,0,1-8.42-8.43,8.5,8.5,0,1,1,17,0A8.44,8.44,0,0,1,561.77,90.69Z"/><path class="cls-5" d="M599.21.45h10.08a1.78,1.78,0,0,1,1.65,2.26L599.06,89.48a2,2,0,0,1-1.5,1.21H582.82a1.72,1.72,0,0,1-1.5-2.11l7.52-56.1v.15c1-5.26,3.15-6.61-8.88-6l.15-.15a1.91,1.91,0,0,1-2.55-2l1.65-10.07C584,10.83,595.6,3.76,599.21.45Z"/><path class="cls-5" d="M641.47.45h10.08a1.78,1.78,0,0,1,1.65,2.26L641.32,89.48a2,2,0,0,1-1.5,1.21H625.08a1.73,1.73,0,0,1-1.51-2.11l7.52-56.1v.15c1.06-5.26,3.16-6.61-8.87-6l.15-.15a1.92,1.92,0,0,1-2.56-2l1.66-10.07C626.28,10.83,637.86,3.76,641.47.45Z"/><path class="cls-5" d="M663.88,90.69a8.41,8.41,0,0,1-8.42-8.43,8.5,8.5,0,1,1,17,0A8.44,8.44,0,0,1,663.88,90.69Z"/><path class="cls-5" d="M743.73,15.49c0,15-4.51,25.57-21.05,39.1-9.63,8.72-13.54,14.74-10.23,17.15H734c3,0,3.46,1.35,3.16,2.4l-5.57,15.49c-.45,1.51-2.25,1.06-3,1.06H688.09c-5.27,0-4.51-3.31-4.36-4.52,1-8,4.51-23.91,23.46-38.5,12.33-8.87,16.69-15,16.69-20.9,0-5.41-4.21-8.72-10.07-8.72-3.46,0-7.83,1.35-12.94,4.51a1.78,1.78,0,0,1-2.71-1.81l2.71-14.43C710.5-3.46,743.73-1.35,743.73,15.49Z"/><path class="cls-5" d="M809.9,39.1c0,22-5.26,44.37-27.82,51.28v-.15c-21.21,4.82-34.74-12.18-34.74-32.48C747.34,35.94,755,0,783,0,805.09,0,809.9,20.45,809.9,39.1Zm-15.64,3.61c0-7.37-2.11-23.46-12.48-23.46-15.19,0-19.1,22.11-19.1,33.39,0,8.72,2,20.9,12.93,20.9C790.05,73.54,794.26,53.84,794.26,42.71Z"/><path class="cls-5" d="M837.27.45h10.07A1.78,1.78,0,0,1,849,2.71L837.12,89.48a2,2,0,0,1-1.51,1.21H820.87a1.72,1.72,0,0,1-1.5-2.11l7.52-56.1v.15c1.05-5.26,3.16-6.61-8.87-6l.15-.15a1.91,1.91,0,0,1-2.56-2l1.66-10.07C822.08,10.83,833.66,3.76,837.27.45Z"/><path class="cls-5" d="M857.42,90.69c-6.17,0-7.22-11.58-1.81-17.3,0,0,25,5.26,35.5-18.35-23.32,5.57-36.55-7.82-35.5-26.77C856.52,12.93,868.1.45,883.44.45c16.54,0,28.12,6.17,29.47,25.42C912.91,68.43,899.23,90.69,857.42,90.69Zm37.9-62.87A12.2,12.2,0,0,0,883,15.49,12.07,12.07,0,0,0,870.8,27.82,12,12,0,0,0,883,40C889.9,40,895.32,35,895.32,27.82Z"/></g></g></svg>