<svg xmlns="http://www.w3.org/2000/svg" viewBox="0 0 588.69 83.74"><defs><style>.cls-1{fill:#fdcd69;}.cls-2{fill:#fff;}</style></defs><title>Yellow button</title><g id="Layer_2" data-name="Layer 2"><g id="Layer_1-2" data-name="Layer 1"><rect class="cls-1" width="588.69" height="83.74"/><path class="cls-2" d="M49.85,26a.66.66,0,0,1,.67-.66h8c4.17,0,7.39,2.8,7.39,6.47,0,2.7-2.21,4.8-3.85,5.57,1.85.59,4.55,2.48,4.55,5.7,0,3.93-3.36,6.76-7.63,6.76H50.52a.67.67,0,0,1-.67-.66Zm8.26,9.63a3,3,0,0,0,3-3.15,2.86,2.86,0,0,0-3-3H54.37v6.13Zm.49,10.08a3.12,3.12,0,0,0,3.15-3.19c0-1.75-1.75-3-3.57-3H54.37v6.23Z"/><path class="cls-2" d="M82.26,25A12.6,12.6,0,1,1,69.7,37.58,12.58,12.58,0,0,1,82.26,25Zm0,20.65a8.05,8.05,0,1,0-8-8A8.08,8.08,0,0,0,82.26,45.6Z"/><path class="cls-2" d="M110.26,25A12.6,12.6,0,1,1,97.7,37.58,12.58,12.58,0,0,1,110.26,25Zm0,20.65a8.05,8.05,0,1,0-8-8A8.08,8.08,0,0,0,110.26,45.6Z"/><path class="cls-2" d="M127.45,26.14a.83.83,0,0,1,.84-.84h3.08a.85.85,0,0,1,.84.84v9.45L141,25.65a.82.82,0,0,1,.66-.35h3.51a.74.74,0,0,1,.55,1.26l-9.13,10.29,9.8,11.72a.77.77,0,0,1-.63,1.23H142a.78.78,0,0,1-.63-.24l-9.13-11.28V49a.85.85,0,0,1-.84.84h-3.08a.83.83,0,0,1-.84-.84Z"/><path class="cls-2" d="M162.8,38l-8-11.69a.65.65,0,0,1,.56-1H159a.7.7,0,0,1,.56.31l5.6,8,5.6-8a.68.68,0,0,1,.56-.31h3.6a.65.65,0,0,1,.56,1L167.35,38V49.14a.7.7,0,0,1-.67.66h-3.22a.67.67,0,0,1-.66-.66Z"/><path class="cls-2" d="M188.87,25a12.6,12.6,0,1,1-12.56,12.63A12.57,12.57,0,0,1,188.87,25Zm0,20.65a8.05,8.05,0,1,0-8-8A8.07,8.07,0,0,0,188.87,45.6Z"/><path class="cls-2" d="M205.71,26a.68.68,0,0,1,.66-.66h3.33a.66.66,0,0,1,.66.66V40.28a5.1,5.1,0,1,0,10.19,0V26a.66.66,0,0,1,.66-.66h3.33a.68.68,0,0,1,.66.66V40.52a9.75,9.75,0,0,1-19.49,0Z"/><path class="cls-2" d="M231.22,26a.66.66,0,0,1,.67-.66h10a7.58,7.58,0,0,1,7.63,7.52,7.73,7.73,0,0,1-5.18,7.07l4.79,8.9a.66.66,0,0,1-.59,1h-3.68a.59.59,0,0,1-.56-.32l-4.65-9.27h-3.89v8.93a.69.69,0,0,1-.66.66h-3.22a.67.67,0,0,1-.67-.66Zm10.29,10.5A3.57,3.57,0,0,0,245,32.89a3.48,3.48,0,0,0-3.47-3.39h-5.7v7Z"/><path class="cls-2" d="M262.27,26a.66.66,0,0,1,.66-.66h14.25a.66.66,0,0,1,.66.66v2.87a.67.67,0,0,1-.66.67H266.82v6.58h8.64a.69.69,0,0,1,.67.66v2.87a.7.7,0,0,1-.67.67h-8.64v8.86a.7.7,0,0,1-.67.66h-3.22a.67.67,0,0,1-.66-.66Z"/><path class="cls-2" d="M282,26a.66.66,0,0,1,.66-.66h10a7.58,7.58,0,0,1,7.63,7.52,7.71,7.71,0,0,1-5.18,7.07l4.8,8.9a.66.66,0,0,1-.6,1h-3.67a.58.58,0,0,1-.56-.32l-4.66-9.27h-3.88v8.93a.7.7,0,0,1-.67.66h-3.22a.67.67,0,0,1-.66-.66Zm10.29,10.5a3.56,3.56,0,0,0,3.46-3.57,3.48,3.48,0,0,0-3.46-3.39h-5.71v7Z"/><path class="cls-2" d="M305.32,26a.66.66,0,0,1,.66-.66h14.25a.66.66,0,0,1,.66.66v2.87a.67.67,0,0,1-.66.67H309.87v5.74h8.64a.69.69,0,0,1,.67.66v2.91a.67.67,0,0,1-.67.66h-8.64V45.6h10.36a.66.66,0,0,1,.66.67v2.87a.67.67,0,0,1-.66.66H306a.67.67,0,0,1-.66-.66Z"/><path class="cls-2" d="M325.9,26a.66.66,0,0,1,.66-.66h14.25a.66.66,0,0,1,.66.66v2.87a.67.67,0,0,1-.66.67H330.45v5.74h8.64a.69.69,0,0,1,.67.66v2.91a.67.67,0,0,1-.67.66h-8.64V45.6h10.36a.66.66,0,0,1,.66.67v2.87a.67.67,0,0,1-.66.66H326.56a.67.67,0,0,1-.66-.66Z"/><path class="cls-2" d="M354.21,26a.66.66,0,0,1,.67-.66h8.22a7.81,7.81,0,1,1,0,15.61h-4.38v8.23a.69.69,0,0,1-.66.66h-3.22a.67.67,0,0,1-.67-.66Zm8.61,10.68A3.61,3.61,0,0,0,366.43,33a3.5,3.5,0,0,0-3.61-3.4h-4.06v7Z"/><path class="cls-2" d="M374.93,26a.66.66,0,0,1,.67-.66h3.22a.68.68,0,0,1,.66.66V45.6h8.93a.66.66,0,0,1,.66.67v2.87a.67.67,0,0,1-.66.66H375.6a.67.67,0,0,1-.67-.66Z"/><path class="cls-2" d="M390.54,48.89l10.88-23.56A.63.63,0,0,1,402,25h.35a.6.6,0,0,1,.6.38l10.78,23.56a.62.62,0,0,1-.6.91h-3a1,1,0,0,1-1-.7l-1.71-3.78H396.91l-1.72,3.78a1,1,0,0,1-1,.7h-3.05A.62.62,0,0,1,390.54,48.89Zm15.12-7.46-3.5-7.7h-.1l-3.44,7.7Z"/><path class="cls-2" d="M427.61,25a11.87,11.87,0,0,1,8.47,3.25.65.65,0,0,1,0,1L434,31.39a.57.57,0,0,1-.88,0,8.26,8.26,0,0,0-5.39-2.07,7.94,7.94,0,0,0-7.8,8.16,7.92,7.92,0,0,0,7.84,8.08,8.38,8.38,0,0,0,5.35-2,.65.65,0,0,1,.88,0l2.17,2.24a.67.67,0,0,1,0,.95,12,12,0,0,1-8.5,3.39,12.6,12.6,0,1,1,0-25.2Z"/><path class="cls-2" d="M440.7,26a.66.66,0,0,1,.66-.66h14.25a.66.66,0,0,1,.66.66v2.87a.67.67,0,0,1-.66.67H445.24v5.74h8.65a.69.69,0,0,1,.67.66v2.91a.67.67,0,0,1-.67.66h-8.65V45.6h10.37a.66.66,0,0,1,.66.67v2.87a.67.67,0,0,1-.66.66H441.36a.67.67,0,0,1-.66-.66Z"/><path class="cls-2" d="M469,25.58a.65.65,0,0,1,.66-.63h.88l14.56,15.47h0V26a.66.66,0,0,1,.66-.66H489a.69.69,0,0,1,.67.66V49.52a.66.66,0,0,1-.67.63h-.84L473.56,34.08h0V49.14a.67.67,0,0,1-.67.66h-3.19a.69.69,0,0,1-.66-.66Z"/><path class="cls-2" d="M506.88,25a12.6,12.6,0,1,1-12.57,12.63A12.57,12.57,0,0,1,506.88,25Zm0,20.65a8.05,8.05,0,1,0-8-8A8.07,8.07,0,0,0,506.88,45.6Z"/><path class="cls-2" d="M521.72,26.14a.61.61,0,0,1,.63-.84h3.22a.71.71,0,0,1,.63.49l3.64,14H530l5.57-14.42a.56.56,0,0,1,.59-.38h.63a.57.57,0,0,1,.6.38L543,39.75h.14l3.57-14a.71.71,0,0,1,.63-.49h3.22a.61.61,0,0,1,.63.84l-6.62,23.52a.67.67,0,0,1-.63.49h-.56a.6.6,0,0,1-.59-.38l-6.27-15.86h-.17l-6.2,15.86a.61.61,0,0,1-.59.38H529a.68.68,0,0,1-.63-.49Z"/></g></g></svg>